<?xml version="1.0" encoding="UTF-8" standalone="no"?>
<svg
   xmlns:dc="http://purl.org/dc/elements/1.1/"
   xmlns:cc="http://creativecommons.org/ns#"
   xmlns:rdf="http://www.w3.org/1999/02/22-rdf-syntax-ns#"
   xmlns:svg="http://www.w3.org/2000/svg"
   xmlns="http://www.w3.org/2000/svg"
   xmlns:sodipodi="http://sodipodi.sourceforge.net/DTD/sodipodi-0.dtd"
   xmlns:inkscape="http://www.inkscape.org/namespaces/inkscape"
   viewBox="0 0 512 512"
   version="1.1"
   id="svg861"
   sodipodi:docname="githubSimple.svg"
   inkscape:version="1.0.1 (3bc2e813f5, 2020-09-07)">
  <metadata
     id="metadata867">
    <rdf:RDF>
      <cc:Work
         rdf:about="">
        <dc:format>image/svg+xml</dc:format>
        <dc:type
           rdf:resource="http://purl.org/dc/dcmitype/StillImage" />
        <dc:title></dc:title>
      </cc:Work>
    </rdf:RDF>
  </metadata>
  <defs
     id="defs865">
    <inkscape:path-effect
       effect="bspline"
       id="path-effect871"
       is_visible="true"
       lpeversion="1"
       weight="33.333333"
       steps="2"
       helper_size="0"
       apply_no_weight="true"
       apply_with_weight="true"
       only_selected="false" />
  </defs>
  <sodipodi:namedview
     pagecolor="#ffffff"
     bordercolor="#666666"
     borderopacity="1"
     objecttolerance="10"
     gridtolerance="10"
     guidetolerance="10"
     inkscape:pageopacity="0"
     inkscape:pageshadow="2"
     inkscape:window-width="1366"
     inkscape:window-height="715"
     id="namedview863"
     showgrid="false"
     inkscape:zoom="0.70710678"
     inkscape:cx="149.11996"
     inkscape:cy="225.66185"
     inkscape:window-x="-8"
     inkscape:window-y="-8"
     inkscape:window-maximized="1"
     inkscape:current-layer="svg861"
     inkscape:document-rotation="0" />
  <path
     d="m512 257c0 120-84.101562 220.5-196 247.5l-30.601562-97.199219h-58.796876l-29.601562 97.199219c-111.898438-27-197-127.5-197-247.5 0-140.699219 115.300781-257 256-257s256 116.300781 256 257zm0 0"
     fill="#384949"
     id="path851"
     style="fill:#ffffff;fill-opacity:1" />
  <path
     d="m512 257c0 120-84.101562 220.5-196 247.5l-30.601562-97.199219h-29.398438v-407.300781c140.699219 0 256 116.300781 256 257zm0 0"
     fill="#293939"
     id="path853"
     style="fill:#f8f8f8;fill-opacity:0" />
  <path
     d="m181.277344 430.058594c-6.078125 0-12.011719-.867188-17.828125-2.578125-15.128907-4.46875-27.421875-14.546875-36.546875-29.914063-4.160156-7.015625-8.496094-11.878906-13.605469-15.308594-5.027344-3.382812-9.039063-4.671874-13.273437-4.363281l-2.636719-29.882812c11.117187-.953125 21.753906 2.0625 32.59375 9.316406 8.832031 5.902344 16.257812 14.0625 22.71875 24.914063 5.304687 8.921874 11.410156 14.152343 19.25 16.46875 8.804687 2.589843 17.941406 1.507812 29.632812-3.472657l11.808594 27.566407c-11.296875 4.835937-21.929687 7.253906-32.113281 7.253906zm0 0"
     fill="#ececf1"
     id="path855"
     style="fill:#ff5722;fill-opacity:1" />
  <path
     d="m400.902344 287.300781c-10.503906 27.898438-36.902344 63.300781-103.800782 73.199219 8.699219 12.898438 19.199219 19.800781 18.898438 46.800781v97.199219c-19.199219 4.800781-39.300781 7.5-60 7.5s-39.800781-2.699219-59-7.5v-98.402344c0-26.699218 10.101562-34.199218 17.898438-45.597656-66.898438-9.902344-93.296876-45.300781-103.800782-73.199219-14.097656-37.203125-6.597656-83.402343 18.003906-112.800781.597657-.601562 1.5-2.101562 1.199219-3-11.402343-34.199219 2.398438-62.699219 3-65.699219 12.898438 3.898438 15-3.902343 56.699219 21.597657l7.199219 4.203124c3 1.796876 2.101562.597657 5.101562.597657 17.398438-4.800781 35.699219-7.5 53.699219-7.5 18.300781 0 36.300781 2.699219 54.597656 7.5l2.101563.300781s.597656 0 2.101562-.898438c51.898438-31.503906 50.097657-21.300781 64.195313-25.800781.300781 3 14.101562 31.796875 2.703125 65.699219-1.5 4.5 45 47.097656 19.203125 115.800781zm0 0"
     fill="#ececf1"
     id="path857"
     style="fill:#ff5722;fill-opacity:1" />
  <path
     d="m400.902344 287.300781c-10.503906 27.898438-36.902344 63.300781-103.800782 73.199219 8.699219 12.898438 19.199219 19.800781 18.898438 46.800781v97.199219c-19.199219 4.800781-39.300781 7.5-60 7.5v-387.300781c18.300781 0 36.300781 2.699219 54.601562 7.5l2.097657.300781s.601562 0 2.101562-.898438c51.898438-31.503906 50.097657-21.300781 64.199219-25.800781.300781 3 14.101562 31.796875 2.699219 65.699219-1.5 4.5 45 47.097656 19.203125 115.800781zm0 0"
     fill="#e2e2e7"
     id="path859"
     style="fill:#e2e2e7;fill-opacity:0" />
  <path
     style="fill:#ffffff;stroke:#000000;stroke-width:1px;stroke-linecap:butt;stroke-linejoin:miter;stroke-opacity:0;fill-opacity:1"
     d="m 379,105.80078 c 0,0 133,151.19922 133,151.19922 0.0118,-3.47237 0.0235,-6.94375 -0.1571,-10.65217 -0.18063,-3.70842 -0.55375,-7.65281 -1.06014,-12.63677 -0.50638,-4.98395 -1.14601,-11.00715 -2.07878,-17.11045 -0.93277,-6.10331 -2.15873,-12.28641 -3.43798,-17.75007 -1.27925,-5.46365 -2.61182,-10.20759 -4.42413,-15.9911 -1.81231,-5.78351 -4.10433,-12.60625 -6.63621,-19.13601 -2.53189,-6.52977 -5.30363,-12.76617 -9.24808,-20.3354 -3.94445,-7.56922 -9.0615,-16.47076 -14.52512,-24.99945 -5.46363,-8.5287 -11.27361,-16.684 -16.8305,-23.600265 -5.55688,-6.916262 -10.8605,-12.59299 -16.27084,-18.016725 -5.41035,-5.423735 -10.92717,-10.59409 -16.99049,-15.751326 -6.06332,-5.157235 -12.67285,-10.30094 -18.93606,-14.738571 -6.26321,-4.437632 -12.1798,-8.168817 -17.27034,-11.180548 -5.09054,-3.011731 -9.35475,-5.303743 -14.23208,-7.702478 -4.87733,-2.398736 -10.3675,-4.903959 -15.45805,-7.089464 -5.09055,-2.185505 -9.78118,-4.051096 -14.71185,-5.810187 -4.93067,-1.759092 -10.10102,-3.411468 -16.3643,-5.0906064 C 317.10468,7.7292716 309.74892,6.0235882 303.08588,4.7175888 296.42284,3.4115894 290.45294,2.5054439 285.57559,1.8924083 280.69824,1.2793728 276.91376,0.95955743 274.0372,0.73072076 271.16064,0.50188409 269.19218,0.36405493 267.60956,0.27156445 266.02693,0.17907396 264.83025,0.13196063 262.46036,0.0887052 260.09048,0.04544976 258.54417,0.02826855 256,0 c 0,0 0,124.69922 0,124.69922 2.71378,0.0449 5.42858,0.0898 7.82202,0.16883 2.39344,0.079 4.46643,0.19208 6.55834,0.34287 2.09191,0.15079 4.20258,0.33924 6.59603,0.62196 2.39345,0.28272 5.06949,0.65962 7.72676,1.0554 2.65728,0.39577 5.29562,0.81036 7.97175,1.28153 2.67613,0.47117 5.38985,0.99884 7.89637,1.54541 2.50652,0.54656 4.80565,1.11193 6.44302,1.52913 1.63738,0.41721 2.6129,0.6862 3.15231,0.82507 0.53941,0.13886 0.64278,0.14783 0.82641,0.17356 0.18363,0.0257 0.44746,0.0681 0.69952,0.1058 0.25206,0.0377 0.49235,0.0706 0.65834,0.0951 0.166,0.0245 0.25776,0.0404 0.34007,0.0425 0.0823,0.002 0.15545,-0.009 0.2838,-0.0429 0.12836,-0.0339 0.31211,-0.0904 0.52402,-0.1776 0.2119,-0.0872 0.45218,-0.20495 0.72303,-0.35335 0.27086,-0.1484 0.57239,-0.32744 0.87629,-0.50647 0.30389,-0.17904 0.61012,-0.35807 2.8105,-1.65061 2.20038,-1.29254 6.29473,-3.6985 10.13434,-5.88098 3.83961,-2.18249 7.42421,-4.14136 9.65633,-5.34736 2.23211,-1.20601 3.11161,-1.65908 4.17771,-2.19213 1.0661,-0.53305 2.31871,-1.14603 3.48475,-1.70572 1.16604,-0.5597 2.24543,-1.06607 3.63803,-1.67241 1.39261,-0.60633 3.09829,-1.31259 4.57751,-1.89227 1.47922,-0.57969 2.73184,-1.03276 4.04451,-1.45252 1.31267,-0.41977 2.68521,-0.80621 3.94457,-1.11935 1.25936,-0.31315 2.40536,-0.55301 3.55813,-0.72621 1.15278,-0.1732 2.31211,-0.27981 3.34489,-0.36642 1.03278,-0.0866 1.93892,-0.15324 2.81844,-0.21987 0.87951,-0.0666 1.73236,-0.13326 2.46523,-0.21992 0.73288,-0.0867 1.34586,-0.19325 1.91885,-0.30654 0.57299,-0.11328 1.10601,-0.23321 1.50159,-0.32984 0.39558,-0.0966 0.65376,-0.16992 0.84532,-0.22489 0.19157,-0.055 0.31648,-0.0916 0.45222,-0.13326 0.13574,-0.0416 0.28234,-0.0883 0.36469,-0.11339 0.0824,-0.0251 0.10024,-0.0287 0.11696,-0.0338 0.0167,-0.005 0.0322,-0.0116 0.0398,-0.0147 0.008,-0.003 0.008,-0.003 0.008,-0.003 z"
     id="path869"
     inkscape:path-effect="#path-effect871"
     inkscape:original-d="M 379,105.80078 512,257 c 0,0 0.0245,-6.94375 0.0353,-10.41712 -0.37213,-3.94356 -0.74525,-7.88795 -1.11938,-11.83342 -0.63865,-6.02244 -1.27829,-12.04564 -1.91893,-18.06995 -1.22501,-6.18236 -2.45097,-12.36546 -3.67795,-18.54969 -1.33162,-4.74312 -2.66419,-9.48706 -3.99778,-14.23208 -2.29111,-6.82201 -4.58312,-13.64475 -6.87618,-20.46862 -2.77085,-6.23566 -5.54258,-12.47207 -8.31537,-18.7096 -5.11626,-8.90089 -10.23331,-17.80243 -15.35147,-26.70515 -5.80922,-8.15462 -11.6192,-16.30993 -17.4303,-24.466391 C 448.04511,87.872022 442.7415,82.195292 437.43678,76.517449 431.92074,71.347888 426.40392,66.177533 420.88599,61.006075 414.2772,55.863166 407.66767,50.719462 401.05701,45.574656 395.14119,41.844323 389.2246,38.113139 383.30689,34.380881 379.0435,32.089776 374.77929,29.797764 370.514,27.504705 365.02461,25.000381 359.53444,22.495158 354.04316,19.988884 349.35334,18.124218 344.66271,16.258626 339.97098,14.391997 334.80138,12.740549 329.63103,11.088168 324.45957,9.4347534 317.10451,7.7300011 309.74875,6.0243171 302.39184,4.317599 296.42271,3.4124181 290.45281,2.5062735 284.4818,1.5991107 280.69816,1.2802822 276.91368,0.96046645 273.12812,0.6396443 c -1.96754,-0.13683472 -3.936,-0.27466393 -5.9055,-0.41349589 -1.19573,-0.0461152 -2.39241,-0.0932285 -3.59011,-0.14134276 C 260.09045,0.0481135 256,0 256,0 v 124.69922 c 0,0 5.42856,0.0908 8.14134,0.1347 2.07407,0.11408 4.14706,0.22715 6.21908,0.33923 2.11177,0.18946 4.22244,0.37791 6.33216,0.56537 2.67714,0.37792 5.35318,0.75482 8.02827,1.13074 2.63945,0.41561 5.27779,0.83021 7.91519,1.24381 2.71484,0.52869 5.42856,1.05636 8.14135,1.58304 2.30022,0.56639 4.59935,1.13175 6.89752,1.69612 0.97657,0.27 1.9521,0.53899 2.92665,0.80699 0.10437,0.01 0.20774,0.0189 0.3101,0.0269 0.26485,0.0434 0.52868,0.0858 0.79152,0.12721 0.24129,0.034 0.48157,0.067 0.72085,0.0989 0.0927,0.0169 0.18446,0.0328 0.27519,0.0477 0.0742,-0.0102 0.14734,-0.0214 0.21951,-0.0336 0.18475,-0.0555 0.36849,-0.11207 0.55124,-0.16961 0.24128,-0.11679 0.48156,-0.23457 0.72084,-0.35336 0.30254,-0.17803 0.60407,-0.35707 0.9046,-0.5371 0.30725,-0.17804 0.61348,-0.35707 0.91873,-0.5371 4.09551,-2.40506 8.18986,-4.81101 12.2833,-7.21802 3.58574,-1.95795 7.17034,-3.91682 10.75402,-5.87673 0.88052,-0.45209 1.76002,-0.90517 2.63853,-1.35925 1.25366,-0.612 2.50627,-1.22498 3.75791,-1.83898 1.08042,-0.50539 2.1598,-1.01177 3.2382,-1.51915 1.70675,-0.70529 3.41243,-1.41155 5.11715,-2.11882 1.25366,-0.45209 2.50628,-0.90516 3.75791,-1.35925 1.3736,-0.38546 2.74614,-0.7719 4.11771,-1.15935 1.14706,-0.23887 2.29306,-0.47873 3.43809,-0.7196 1.16038,-0.10561 2.31971,-0.21222 3.47807,-0.31982 0.90718,-0.0656 1.81332,-0.13226 2.71849,-0.19989 0.85387,-0.0656 1.70671,-0.13226 2.55857,-0.19989 0.61401,-0.10561 1.22699,-0.21222 1.83898,-0.31982 0.53405,-0.11894 1.06707,-0.23887 1.59911,-0.3598 0.2592,-0.0723 0.51738,-0.14559 0.77457,-0.21988 0.12593,-0.0357 0.25086,-0.0723 0.37479,-0.10994 0.14759,-0.0456 0.29417,-0.0923 0.43976,-0.13992 0.0189,-0.003 0.0369,-0.006 0.0538,-0.0108 0.0166,-0.006 0.0323,-0.012 0.0469,-0.0195 z" />
</svg>
