<svg xmlns="http://www.w3.org/2000/svg" xmlns:osb="http://www.openswatchbook.org/uri/2009/osb" xmlns:svg="http://www.w3.org/2000/svg" style="fill:none" id="svg8" width="48" height="48" version="1.1" viewBox="0 0 288 288"><metadata id="metadata14"/><defs id="defs12"><linearGradient id="linearGradient3373" osb:paint="solid"><stop style="stop-color:#ffa734;stop-opacity:1" id="stop3371" offset="0"/></linearGradient></defs><path style="fill:none;stroke:#6a6a6a;stroke-width:15;stroke-linecap:round;stroke-linejoin:round" id="path2"/><path style="fill:#8338ec;stroke:#8338ec;stroke-width:1;stroke-linecap:round;stroke-linejoin:round" id="path4"/><path style="stroke:#ffa734;stroke-width:1;stroke-linecap:round;stroke-linejoin:round;fill-opacity:1;fill-rule:nonzero;fill:#ffa734;stroke-opacity:1" id="path6" d="m 241.28706,139.29786 a 45,45 0 0 1 45,45 45,45 0 0 1 -45,45 H 61.287062 a 60,60 0 0 1 -60,-60 60,60 0 0 1 60,-60 h 89.999998 v 30 h 90 m -90,-90 a 75,75 0 0 0 -74.999998,75 75,75 0 0 0 74.999998,75 75,75 0 0 0 75,-75 75,75 0 0 0 -75,-75 75,75 0 0 0 -74.999998,75 75,75 0 0 0 74.999998,75 75,75 0 0 0 75,-75 75,75 0 0 0 -75,-75"/></svg>