<?xml version="1.0" encoding="UTF-8" standalone="no"?>
<svg
   xmlns:dc="http://purl.org/dc/elements/1.1/"
   xmlns:cc="http://creativecommons.org/ns#"
   xmlns:rdf="http://www.w3.org/1999/02/22-rdf-syntax-ns#"
   xmlns:svg="http://www.w3.org/2000/svg"
   xmlns="http://www.w3.org/2000/svg"
   xmlns:sodipodi="http://sodipodi.sourceforge.net/DTD/sodipodi-0.dtd"
   xmlns:inkscape="http://www.inkscape.org/namespaces/inkscape"
   version="1.1"
   width="48"
   height="48"
   style="fill:none"
   id="svg8"
   sodipodi:docname="logo-simple-black.svg"
   inkscape:version="1.0.1 (3bc2e813f5, 2020-09-07)"
   viewBox="2.7755576e-17 0 288 288">
  <metadata
     id="metadata14">
    <rdf:RDF>
      <cc:Work
         rdf:about="">
        <dc:format>image/svg+xml</dc:format>
        <dc:type
           rdf:resource="http://purl.org/dc/dcmitype/StillImage" />
        <dc:title />
      </cc:Work>
    </rdf:RDF>
  </metadata>
  <defs
     id="defs12" />
  <sodipodi:namedview
     pagecolor="#ffffff"
     bordercolor="#666666"
     borderopacity="1"
     objecttolerance="10"
     gridtolerance="10"
     guidetolerance="10"
     inkscape:pageopacity="0"
     inkscape:pageshadow="2"
     inkscape:window-width="1366"
     inkscape:window-height="715"
     id="namedview10"
     showgrid="false"
     inkscape:pagecheckerboard="true"
     inkscape:showpageshadow="false"
     fit-margin-top="0"
     fit-margin-left="0"
     fit-margin-right="0"
     fit-margin-bottom="0"
     inkscape:zoom="8"
     inkscape:cx="28.847535"
     inkscape:cy="28.981811"
     inkscape:window-x="-8"
     inkscape:window-y="-8"
     inkscape:window-maximized="1"
     inkscape:current-layer="svg8"
     inkscape:document-rotation="0"
     scale-x="6"
     viewbox-width="286"
     viewbox-x="0"
     lock-margins="true"
     units="px" />
  <path
     d=""
     style="fill:none;stroke:#6a6a6a;stroke-width:15;stroke-linecap:round;stroke-linejoin:round"
     id="path2" />
  <path
     d=""
     style="fill:#8338ec;stroke:#8338ec;stroke-width:1;stroke-linecap:round;stroke-linejoin:round"
     id="path4" />
  <path
     d="m 241.28706,139.29786 a 45,45 0 0 1 45,45 45,45 0 0 1 -45,45 H 61.287062 a 60,60 0 0 1 -60,-60 60,60 0 0 1 60,-60 h 89.999998 v 30 h 90 m -90,-90 a 75,75 0 0 0 -74.999998,75 75,75 0 0 0 74.999998,75 75,75 0 0 0 75,-75 75,75 0 0 0 -75,-75 75,75 0 0 0 -74.999998,75 75,75 0 0 0 74.999998,75 75,75 0 0 0 75,-75 75,75 0 0 0 -75,-75"
     style="fill:#000000;stroke:#000000;stroke-width:1;stroke-linecap:round;stroke-linejoin:round;fill-opacity:1;stroke-opacity:1"
     id="path6" />
</svg>
