<svg xmlns="http://www.w3.org/2000/svg" xmlns:svg="http://www.w3.org/2000/svg" id="svg10" width="150" height="150" version="1.1" viewBox="0 0 150 150"><metadata id="metadata16"/><g id="layer2" style="display:inline"><ellipse style="fill:#a700ff;fill-opacity:1;stroke:#000;stroke-width:1.00326;stroke-linejoin:bevel;stroke-dasharray:1.00326,6.0196;stroke-opacity:0" id="path860" cx="75.005" cy="75" rx="74.989" ry="74.994"/></g><g id="layer3" style="display:inline"><path style="display:inline;fill:#7400b1;fill-opacity:1;stroke:#000;stroke-width:1px;stroke-linecap:butt;stroke-linejoin:miter;stroke-opacity:0" id="path1038" d="m 59.885731,93.171109 -0.51596,5.874006 -20.340791,20.533275 36.801703,30.42535 c 0,0 0.110585,-0.002 0.203497,-0.003 0.352719,-0.005 0.763018,0.006 1.11373,-9.8e-4 0.423141,-0.0234 0.794484,-0.0595 1.192179,-0.0927 0.393232,-0.0193 0.777635,-0.0395 1.168858,-0.0608 0.332463,-0.0193 0.702975,-0.0473 1.033431,-0.0686 0.255122,-0.0229 0.517046,-0.0391 0.770163,-0.064 0.234865,-0.0211 0.437471,-0.0432 0.670332,-0.0663 0.205402,-0.0174 0.407115,-0.0421 0.610513,-0.0616 0.452158,-0.0487 0.870153,-0.10945 1.320302,-0.1602 0.303,-0.0358 0.616035,-0.0893 0.917029,-0.12707 0.457682,-0.0653 0.914346,-0.1371 1.370019,-0.20439 0.378499,-0.0598 0.767033,-0.13158 1.143525,-0.19335 0.40772,-0.0662 0.781277,-0.1611 1.186989,-0.22935 0.438509,-0.0823 0.876,-0.16566 1.3125,-0.25 0.558303,-0.124 1.115583,-0.249 1.671875,-0.375 0.615596,-0.14483 1.230167,-0.29066 1.84375,-0.4375 0.490593,-0.124 0.980167,-0.249 1.46875,-0.375 0.579136,-0.17087 1.15725,-0.34275 1.734375,-0.51562 0.688514,-0.21775 1.376,-0.4365 2.0625,-0.65625 0.584345,-0.19692 1.167667,-0.39483 1.75,-0.59375 0.99204,-0.38323 1.98305,-0.76745 2.97308,-1.15268 0.98065,-0.42621 1.96027,-0.85342 2.93891,-1.28163 0.87753,-0.41148 1.75403,-0.82395 2.62955,-1.23743 0.46505,-0.24944 0.92908,-0.49987 1.39212,-0.7513 0.81124,-0.44096 1.62145,-0.88289 2.43068,-1.32583 0.59026,-0.35993 1.17951,-0.72084 1.76776,-1.08276 0.67573,-0.43273 1.35043,-0.86645 2.02415,-1.30118 -0.025,0.009 -56.645519,-44.164831 -56.645519,-44.164831 z"/><path style="display:inline;fill:#7400b1;fill-opacity:1;stroke:#000;stroke-width:1px;stroke-linecap:butt;stroke-linejoin:miter;stroke-opacity:0" id="path1042" d="m 131.36719,124.34375 -64.315474,-47.714642 8.531609,-7.240642 3.423869,2.020644 5.388385,-4.378064 6.567094,3.030966 19.757407,-25.145794 -0.61742,-1.403224 -4.37806,-0.673549 -0.89806,-1.627741 6.3987,-7.970318 38.67035,42.64001 v 0.176777 c 0,0 -0.0752,2.274718 -0.11434,3.410577 -0.0823,1.105189 -0.16567,2.209333 -0.25,3.3125 -0.124,1.021854 -0.249,2.042667 -0.375,3.0625 -0.124,0.730181 -0.249,1.459333 -0.375,2.1875 -0.39484,1.86562 -0.79067,3.730167 -1.1875,5.59375 -0.26984,0.969769 -0.54067,1.9385 -0.8125,2.90625 -0.49901,1.50103 -0.999,3.001 -1.5,4.5 -0.49901,1.23019 -0.999,2.45933 -1.5,3.6875 -0.56151,1.21977 -1.124,2.4385 -1.6875,3.65625 -0.78027,1.45936 -1.5615,2.91767 -2.34375,4.375 -0.59276,0.94894 -1.1865,1.89683 -1.78125,2.84375 -0.65526,0.98019 -1.3115,1.95933 -1.96875,2.9375 -0.75943,1.00102 -1.51983,2.001 -2.28125,3 -0.43651,0.54268 -0.874,1.08433 -1.3125,1.625 -0.22751,0.26679 -1.03906,1.1875 -1.03906,1.1875 z"/><path style="display:inline;fill:#7400b1;fill-opacity:1;stroke:#000;stroke-width:1px;stroke-linecap:butt;stroke-linejoin:miter;stroke-opacity:0" id="path1044" d="m 61.494945,90.492971 5.837416,-5.219997 5.949674,-0.280645 55.985925,41.668171 c 0,0 -0.85342,0.85542 -1.28163,1.28163 -0.9492,0.907 -1.89935,1.81296 -2.85053,2.71794 -0.45568,0.39876 -0.91234,0.7965 -1.37002,1.19325 -0.40412,0.34719 -0.80922,0.69337 -1.21534,1.03856 -1.03666,0.80789 -3.22617,2.47487 -3.22617,2.47487 l -0.39438,0.32966 z"/></g><g id="layer1" style="display:inline"><path style="display:inline;fill:#fff;fill-opacity:1;stroke:#000;stroke-width:.599042px;stroke-linecap:butt;stroke-linejoin:miter;stroke-opacity:0" id="path849" d="m 42.025592,110.71373 3.175135,-1.94476 -6.270893,10.91452 20.439937,-20.638375 0.51596,-5.874006 -4.92146,-3.810162 -4.921461,1.944769 z"/><path style="fill:#fff;fill-opacity:1;stroke:#000;stroke-width:.599042px;stroke-linecap:butt;stroke-linejoin:miter;stroke-opacity:0" id="path853" d="m 56.443335,73.766528 16.8387,11.225801 -5.949674,0.280645 -5.837416,5.219997 -5.276127,-3.985159 1.683871,-7.521287 z"/><path style="fill:#fff;fill-opacity:1;stroke:#000;stroke-width:.599042px;stroke-linecap:butt;stroke-linejoin:miter;stroke-opacity:0" id="path855" d="m 79.007194,71.40911 -3.423869,-2.020644 -8.531609,7.240642 -16.389669,-10.103221 1.852257,-7.970318 4.209675,1.964515 4.265805,-3.367741 7.858061,3.311611 17.849022,-22.114827 6.005802,0.785806 -0.112254,-1.908386 5.94967,-7.184512 1.796135,0.785806 2.58193,-0.05613 0.89807,0.729677 3.76064,-0.168387 0.3929,0.729677 2.80645,-0.05613 0.44903,1.234838 -6.3987,7.970318 0.89806,1.627741 4.37806,0.673549 0.61742,1.403224 -19.757407,25.145794 -6.567094,-3.030966 z"/></g></svg>